HIERARCHY
ROOT Hips
{
	OFFSET 0.00000 0.00000 0.00000
	CHANNELS 6 Xposition Yposition Zposition Zrotation Yrotation Xrotation 
	JOINT LHipJoint
	{
		OFFSET 0 0 0
		CHANNELS 3 Zrotation Yrotation Xrotation
		JOINT LeftUpLeg
		{
			OFFSET 1.09156 -1.61406 0.76500
			CHANNELS 3 Zrotation Yrotation Xrotation
			JOINT LeftLeg
			{
				OFFSET 2.33750 -6.42225 0.00000
				CHANNELS 3 Zrotation Yrotation Xrotation
				JOINT LeftFoot
				{
					OFFSET 2.49247 -6.84800 0.00000
					CHANNELS 3 Zrotation Yrotation Xrotation
					JOINT LeftToeBase
					{
						OFFSET 0.15312 -0.42069 1.45461
						CHANNELS 3 Zrotation Yrotation Xrotation
						End Site
						{
							OFFSET 0.00000 -0.00000 0.77046
						}
					}
				}
			}
		}
	}
	JOINT RHipJoint
	{
		OFFSET 0 0 0
		CHANNELS 3 Zrotation Yrotation Xrotation
		JOINT RightUpLeg
		{
			OFFSET -0.99883 -1.61406 0.76500
			CHANNELS 3 Zrotation Yrotation Xrotation
			JOINT RightLeg
			{
				OFFSET -2.36877 -6.50815 0.00000
				CHANNELS 3 Zrotation Yrotation Xrotation
				JOINT RightFoot
				{
					OFFSET -2.53452 -6.96353 0.00000
					CHANNELS 3 Zrotation Yrotation Xrotation
					JOINT RightToeBase
					{
						OFFSET -0.13156 -0.36145 1.63237
						CHANNELS 3 Zrotation Yrotation Xrotation
						End Site
						{
							OFFSET -0.00000 -0.00000 0.84979
						}
					}
				}
			}
		}
	}
	JOINT LowerBack
	{
		OFFSET 0 0 0
		CHANNELS 3 Zrotation Yrotation Xrotation
		JOINT Spine
		{
			OFFSET -0.02431 1.98242 -0.13616
			CHANNELS 3 Zrotation Yrotation Xrotation
			JOINT Spine1
			{
				OFFSET 0.03629 1.98974 -0.02954
				CHANNELS 3 Zrotation Yrotation Xrotation
				JOINT Neck
				{
					OFFSET 0 0 0
					CHANNELS 3 Zrotation Yrotation Xrotation
					JOINT Neck1
					{
						OFFSET 0.09349 1.40783 0.22333
						CHANNELS 3 Zrotation Yrotation Xrotation
						JOINT Head
						{
							OFFSET -0.04273 1.44500 -0.06495
							CHANNELS 3 Zrotation Yrotation Xrotation
							End Site
							{
								OFFSET -0.02251 1.44600 -0.04544
							}
						}
					}
				}
				JOINT LeftShoulder
				{
					OFFSET 0 0 0
					CHANNELS 3 Zrotation Yrotation Xrotation
					JOINT LeftArm
					{
						OFFSET 3.49137 0.85126 -0.29740
						CHANNELS 3 Zrotation Yrotation Xrotation
						JOINT LeftForeArm
						{
							OFFSET 5.06035 -0.00000 0.00000
							CHANNELS 3 Zrotation Yrotation Xrotation
							JOINT LeftHand
							{
								OFFSET 3.14780 -0.00000 0.00000
								CHANNELS 3 Zrotation Yrotation Xrotation
								JOINT LeftFingerBase
								{
									OFFSET 0 0 0
									CHANNELS 3 Zrotation Yrotation Xrotation
									JOINT LeftHandIndex1
									{
										OFFSET 0.60675 -0.00000 0.00000
										CHANNELS 3 Zrotation Yrotation Xrotation
										End Site
										{
											OFFSET 0.48918 -0.00000 0.00000
										}
									}
								}
								JOINT LThumb
								{
									OFFSET 0 0 0
									CHANNELS 3 Zrotation Yrotation Xrotation
									End Site
									{
										OFFSET 0.49664 -0.00000 0.49664
									}
								}
							}
						}
					}
				}
				JOINT RightShoulder
				{
					OFFSET 0 0 0
					CHANNELS 3 Zrotation Yrotation Xrotation
					JOINT RightArm
					{
						OFFSET -3.28101 0.69707 0.00747
						CHANNELS 3 Zrotation Yrotation Xrotation
						JOINT RightForeArm
						{
							OFFSET -5.12273 -0.00000 -0.00000
							CHANNELS 3 Zrotation Yrotation Xrotation
							JOINT RightHand
							{
								OFFSET -3.42200 -0.00000 0.00000
								CHANNELS 3 Zrotation Yrotation Xrotation
								JOINT RightFingerBase
								{
									OFFSET 0 0 0
									CHANNELS 3 Zrotation Yrotation Xrotation
									JOINT RightHandIndex1
									{
										OFFSET -0.70460 -0.00000 0.00000
										CHANNELS 3 Zrotation Yrotation Xrotation
										End Site
										{
											OFFSET -0.56807 -0.00000 0.00000
										}
									}
								}
								JOINT RThumb
								{
									OFFSET 0 0 0
									CHANNELS 3 Zrotation Yrotation Xrotation
									End Site
									{
										OFFSET -0.57674 -0.00000 0.57674
									}
								}
							}
						}
					}
				}
			}
		}
	}
}
MOTION
Frames: 13
Frame Time: 0.0487805
0.00 0.00 0.00 177.5740 -14.3125 -168.1470 0.0000 0.0000 0.0000 -13.1827 1.6821 10.4856 0.6804 5.2742 14.6923 -0.9226 24.3254 10.0543 8.7422 16.6390 55.1944 0.0000 0.0000 0.0000 22.4324 -2.3697 -16.0153 -1.2958 -7.2121 20.3452 -1.1131 -3.0404 -21.2401 -0.6445 -5.1359 14.2965 -2.1584 -4.0645 -7.0511 1.8918 -5.3507 -0.3193 2.5947 -2.7291 3.9931 -5.9222 -3.3674 -11.1421 5.2728 -4.1407 -1.2354 2.5419 -2.0441 1.8082 -0.0000 -0.0000 0.0000 94.9874 -71.0754 -118.4624 14.2969 -23.1576 -2.9439 -0.0000 -0.0000 23.4741 55.0067 47.2859 46.3860 -7.1250 0.0000 -0.0000 109.6429 -84.7894 -114.6428 -0.0000 -0.0000 0.0000 -86.1008 71.4295 -117.1146 -17.4810 27.4875 -4.3070 0.0000 0.0000 10.5613 -61.1445 48.6391 -53.7161 7.1250 -0.0000 -0.0000 -7.4781 36.6202 -10.5061
0.00 0.00 0.00 176.9430 -15.6379 -165.4860 0.0000 0.0000 0.0000 -13.0573 0.7918 8.1335 0.6032 4.9713 13.8269 -1.0133 24.8725 9.8715 8.7044 16.6137 55.0621 0.0000 0.0000 0.0000 22.3540 -1.0518 -18.2422 -1.2848 -7.1827 20.2577 -0.9321 -5.2575 -20.8694 -0.4665 -4.3810 12.1510 -1.6197 -3.6950 -4.7042 1.5069 -4.8901 0.5771 2.0743 -2.4824 3.4955 -8.5786 -5.1043 -9.1299 5.1964 -6.1591 0.5512 2.9169 -3.0252 2.2744 0.0000 -0.0000 0.0000 93.3823 -66.2543 -116.6485 17.6045 -27.6478 -4.3641 -0.0000 -0.0000 21.1847 56.2854 46.4418 47.3610 -7.1250 0.0000 -0.0000 106.5621 -84.0197 -112.4079 0.0000 -0.0000 0.0000 -60.9519 67.6331 -93.7202 -83.0627 59.8174 -53.9958 0.0000 -0.0000 -5.7933 -73.2092 46.6479 -67.4632 7.1250 -0.0000 -0.0000 -13.6676 43.5497 -19.5214
0.00 0.00 0.00 177.9170 -17.5824 -166.0480 0.0000 0.0000 0.0000 -10.5350 -0.1275 7.8544 0.7512 5.5360 15.4439 -1.0587 25.3075 9.9772 8.4205 16.4200 54.0634 0.0000 0.0000 0.0000 25.1734 -5.8384 -18.7189 -1.2156 -6.9939 19.6973 -1.1600 -4.4175 -22.3819 -0.0076 -0.5646 1.5514 0.0985 -2.6098 -4.2661 1.1871 -3.5324 -0.7775 0.9618 -1.7780 1.6585 -5.1944 -5.2287 -9.5459 5.0670 -6.6695 1.2742 2.2074 -3.2486 2.4695 -0.0000 -0.0000 0.0000 84.1848 -70.5723 -113.8798 32.6908 -43.0911 -13.2104 -0.0000 0.0000 -12.0774 21.0706 18.5671 6.9940 -7.1250 0.0000 -0.0000 -7.0045 49.6481 -0.8062 -0.0000 -0.0000 0.0000 -90.1561 69.4569 -128.2630 -22.4194 33.4477 -6.8155 0.0000 0.0000 22.8642 -74.8211 31.0981 -62.2890 7.1250 -0.0000 -0.0000 -23.3204 32.7788 -33.8057
0.00 0.00 0.00 178.0510 -11.5457 -162.8890 0.0000 0.0000 0.0000 -13.6596 3.0178 9.0740 0.1852 2.7718 7.6442 -1.2627 24.3430 6.7773 8.3980 16.4043 53.9840 0.0000 0.0000 0.0000 22.8097 -0.0896 -23.0940 -1.4351 -7.5741 21.4277 -0.9243 -1.7260 -18.8624 -0.0782 -1.8045 4.9656 -1.1185 -3.6022 -3.6440 1.4416 -4.8255 -1.5886 1.8954 -2.4288 0.6224 1.3388 1.6611 -20.6424 4.8653 0.8455 2.4938 1.3735 0.4919 3.9873 -0.0000 0.0000 0.0000 97.5520 -63.2924 -141.9193 9.5768 -16.0749 -1.3554 -0.0000 -0.0000 46.8559 66.3855 47.7092 59.4166 -7.1250 0.0000 -0.0000 139.0850 -78.0017 -147.6095 -0.0000 0.0000 0.0000 -93.9930 68.2158 -129.1240 -18.0448 28.2145 -4.5704 0.0000 0.0000 19.4323 -77.3035 34.7918 -68.4537 7.1250 -0.0000 -0.0000 -23.1704 38.8111 -33.8062
0.00 0.00 0.00 178.2300 -11.4396 -165.8010 0.0000 0.0000 0.0000 -13.5752 3.8221 8.9098 0.4922 4.4982 12.4826 -0.6774 21.6498 9.4062 7.4711 15.7161 50.6344 0.0000 0.0000 0.0000 22.5098 -0.8609 -19.8304 -1.3620 -7.3868 20.8666 -0.7401 -3.8976 -18.1241 -0.0001 0.0620 -0.1703 -1.1418 -3.7824 -6.0179 2.1024 -5.0707 -0.3848 2.3532 -2.5728 3.2590 -0.4166 -0.8796 -19.3335 6.7206 -2.3244 11.2142 1.9834 -0.6083 6.6721 -0.0000 0.0000 0.0000 98.1349 -63.5433 -147.6088 6.3457 -10.8376 -0.6026 -0.0000 -0.0000 55.6057 63.1449 47.0313 55.3174 -7.1250 0.0000 -0.0000 130.6460 -80.2124 -138.5353 -0.0000 0.0000 0.0000 -92.7688 67.5278 -127.8720 -11.6954 19.3462 -2.0002 0.0000 0.0000 49.2242 -81.8155 40.1078 -77.4148 7.1250 -0.0000 -0.0000 -22.7553 47.1838 -32.9132
0.00 0.00 0.00 176.6810 -16.4506 -168.2410 0.0000 0.0000 0.0000 -11.9475 -0.8919 -0.0308 2.4932 9.8255 28.4135 0.5388 18.5543 17.4333 7.8811 16.0311 52.1334 0.0000 0.0000 0.0000 21.9354 -2.7312 -17.0181 -1.0501 -6.5164 18.2902 -0.7830 -4.1987 -18.7530 -1.0379 -6.4794 18.1819 -0.1495 -3.0917 -5.7446 1.7120 -4.2137 1.4469 1.4370 -2.1265 4.8589 1.6337 -1.3725 -17.8350 5.3424 -3.2653 11.6532 1.1040 -1.0995 6.5448 -0.0000 -0.0000 0.0000 101.7730 -66.8033 -138.3330 7.5771 -12.8651 -0.8555 -0.0000 -0.0000 45.8678 67.3842 49.2076 61.1783 -7.1250 0.0000 -0.0000 146.4322 -76.9596 -154.3420 -0.0000 -0.0000 0.0000 -81.4048 68.7420 -110.5478 -12.3896 20.3864 -2.2362 0.0000 0.0000 54.6423 -67.1424 37.9165 -55.5506 7.1250 -0.0000 -0.0000 -15.9963 31.7519 -22.5270
0.00 0.00 0.00 177.5550 -16.4354 -171.6540 0.0000 0.0000 0.0000 -11.1808 -5.3362 -5.6675 5.5646 13.9927 43.2082 1.0658 17.4860 20.7076 8.2887 16.3275 53.5960 0.0000 0.0000 0.0000 23.2010 -5.3240 -12.4382 -0.5160 -4.6040 12.7824 -0.2788 -6.1039 -14.0595 -0.1475 -2.4749 6.8201 1.0375 -1.6718 -5.2554 0.7234 -2.3371 1.2236 -0.0403 -1.1460 4.1995 3.2990 -1.1691 -18.6330 5.2160 -3.5068 12.1535 0.7632 -1.1387 6.8213 0.0000 -0.0000 0.0000 118.7250 -70.5203 -149.6750 8.4925 -14.3481 -1.0709 -0.0000 -0.0000 30.2847 40.1918 44.4049 30.5891 -7.1250 0.0000 -0.0000 4.3728 82.0062 3.7229 0.0000 -0.0000 0.0000 -63.6660 73.9322 -90.6945 -14.0259 22.7717 -2.8381 0.0000 0.0000 45.7448 -62.5669 40.4091 -51.3138 7.1250 -0.0000 -0.0000 -12.5839 30.5132 -17.4831
0.00 0.00 0.00 177.9970 -15.8500 -172.5090 0.0000 0.0000 0.0000 -11.2714 -5.2061 -6.4398 6.1500 14.5721 45.5808 1.2623 16.3365 21.6368 7.0139 15.3436 48.9267 0.0000 0.0000 0.0000 23.4322 -4.7329 -11.3506 -0.5009 -4.5371 12.5929 -0.2627 -6.2332 -13.9404 -0.2108 -2.9561 8.1564 1.3622 -1.4655 -4.9846 1.0231 -2.0883 0.7368 0.1240 -1.0271 3.5439 1.6515 -0.9931 -17.2371 6.5177 -3.0098 11.9876 1.5073 -0.8982 6.5743 0.0000 0.0000 0.0000 123.0568 -76.7058 -148.3285 12.1295 -19.9985 -2.1464 -0.0000 -0.0000 18.3502 44.3039 40.7900 32.5217 -7.1250 0.0000 -0.0000 20.8992 79.6974 16.9254 0.0000 0.0000 0.0000 -42.8362 77.4779 -64.5163 -19.3934 29.9045 -5.2255 0.0000 0.0000 38.9138 -63.6725 40.8179 -52.8737 7.1250 -0.0000 -0.0000 -12.8974 31.6977 -18.0136
0.00 0.00 0.00 178.3090 -15.5268 -173.2180 0.0000 0.0000 0.0000 -11.3010 -5.4709 -6.7746 6.5647 14.9541 47.2079 1.1351 17.2512 21.0890 7.3445 15.6153 50.1656 0.0000 0.0000 0.0000 23.5938 -4.8410 -9.9065 -0.3947 -4.0339 11.1721 -0.2537 -5.7473 -13.3471 -0.4828 -4.4558 12.3628 1.7589 -1.3422 -4.5823 1.1120 -1.9413 0.5326 0.0187 -0.9535 3.0977 1.6497 -0.8620 -17.5112 6.3688 -2.8430 12.4289 1.4791 -0.8093 6.7554 0.0000 -0.0000 0.0000 136.3825 -82.0663 -159.3356 15.5282 -24.8767 -3.4451 -0.0000 -0.0000 16.8813 46.3940 36.4779 31.9711 -7.1250 0.0000 -0.0000 25.8502 75.7479 18.9561 0.0000 -0.0000 0.0000 -16.8729 78.0908 -34.4213 -24.1474 35.3198 -7.7916 0.0000 0.0000 36.3625 -67.8541 40.0814 -57.7031 7.1250 -0.0000 -0.0000 -15.2569 34.2891 -21.6061
0.00 0.00 0.00 178.0590 -15.2193 -173.5080 0.0000 0.0000 0.0000 -11.8962 -6.0115 -7.1849 6.9696 15.3062 48.7591 0.8098 18.7567 19.4766 8.0424 16.1504 52.7153 0.0000 0.0000 0.0000 23.8166 -5.9139 -9.1135 -0.2589 -3.2735 9.0411 0.2222 -9.5216 -8.4237 -1.1151 6.7084 -18.8542 1.5813 -1.4153 -4.4910 1.0747 -2.0231 0.4939 0.0770 -0.9971 3.0101 1.7430 -0.3876 -17.2605 6.1274 -2.1293 11.9923 1.4615 -0.4927 6.5481 -0.0000 0.0000 0.0000 174.4491 -86.6765 165.8317 18.9095 -29.3061 -4.9865 -0.0000 -0.0000 17.1873 48.5302 35.5000 33.3074 -7.1250 0.0000 -0.0000 30.9998 75.3089 22.5952 -0.0000 0.0000 0.0000 5.4959 77.5722 -10.2805 -27.7269 38.8636 -9.9518 0.0000 0.0000 36.5084 -70.8445 40.3717 -61.7966 7.1250 -0.0000 -0.0000 -16.5641 37.0428 -23.6722
0.00 0.00 0.00 178.1900 -15.1641 -173.6570 0.0000 0.0000 0.0000 -11.8035 -6.1043 -7.2158 7.0417 15.3669 49.0318 0.6620 19.4797 18.7905 8.3191 16.3490 53.7041 0.0000 0.0000 0.0000 23.6215 -6.1394 -8.4245 -0.2232 -3.0413 8.3936 -0.1367 -5.6250 -11.2105 -0.1564 -2.5480 7.0228 1.7419 -1.4127 -4.4200 1.1231 -2.0288 0.4210 0.0398 -0.9999 2.8914 1.7867 -0.2803 -17.5184 6.0452 -2.0015 12.1902 1.4432 -0.4245 6.6506 -0.0000 0.0000 0.0000 -149.1564 -86.5275 129.4142 19.9043 -30.5269 -5.4827 -0.0000 -0.0000 18.3188 46.6060 34.6909 31.0472 -7.1250 0.0000 -0.0000 25.6101 73.8750 17.7796 -0.0000 0.0000 0.0000 13.0164 76.5671 -1.6139 -29.2271 40.2216 -10.9071 0.0000 0.0000 35.3958 -71.9998 40.6287 -63.4810 7.1250 -0.0000 -0.0000 -16.9940 38.2507 -24.3541
0.00 0.00 0.00 178.1950 -15.0754 -173.7660 0.0000 0.0000 0.0000 -11.9547 -5.9783 -7.6681 7.2262 15.5194 49.7246 0.7258 19.0177 19.0128 7.9300 16.0675 52.3102 0.0000 0.0000 0.0000 23.6923 -6.2213 -7.9359 -0.1799 -2.7317 7.5326 -0.0320 -6.5248 -10.0779 -0.0014 0.2431 -0.6679 1.9043 -1.5913 -4.4535 1.1146 -2.2756 0.3311 -0.0757 -1.1218 2.8083 2.1147 0.1704 -17.3187 5.4942 -1.3376 11.9191 1.2816 -0.1388 6.5054 0.0000 0.0000 0.0000 -104.3277 -84.0897 85.6656 21.6342 -32.5612 -6.3879 -0.0000 -0.0000 18.7696 47.8493 35.1505 32.4578 -7.1250 0.0000 -0.0000 28.9441 74.7400 20.7030 0.0000 0.0000 0.0000 26.9747 74.9727 13.5046 -31.5364 42.1744 -12.4284 0.0000 0.0000 34.2406 -74.0986 41.3532 -66.6749 7.1250 -0.0000 -0.0000 -17.6191 40.6519 -25.3368
0.00 0.00 0.00 178.4890 -14.9940 -174.3340 0.0000 0.0000 0.0000 -12.2222 -5.8932 -8.6344 7.7616 15.9410 51.6992 0.2690 19.9264 16.1670 7.8066 15.9752 51.8631 0.0000 0.0000 0.0000 24.0936 -6.7682 -6.1783 -0.0868 -1.9001 5.2296 0.0784 -7.2077 -8.1957 -0.1981 2.8664 -7.9071 0.9248 -2.2147 -4.3397 2.5570 -3.1317 0.0918 1.9044 -1.5934 2.6205 0.4873 0.6245 -16.6318 5.3976 -0.1889 10.9218 1.6226 0.3259 6.0417 0.0000 -0.0000 0.0000 -85.4442 -70.7466 68.6148 23.8975 -35.0557 -7.6476 -0.0000 -0.0000 15.2979 48.8858 34.6818 33.1024 -7.1250 0.0000 -0.0000 31.3270 74.5279 22.3449 0.0000 -0.0000 0.0000 52.7653 65.7363 43.8536 -33.8376 43.9641 -14.0002 0.0000 0.0000 32.9417 -76.5990 41.4234 -70.1958 7.1250 -0.0000 -0.0000 -18.8673 42.9649 -27.2076
